<mxfile host="app.diagrams.net" modified="2021-10-21T17:30:07.316Z" agent="5.0 (Windows NT 10.0; Win64; x64) AppleWebKit/537.36 (KHTML, like Gecko) Chrome/96.0.4664.9 Safari/537.36" etag="F-Ncjorv1AeXf-dzoATl" version="15.5.7" type="github" pages="5">
  <diagram id="C5RBs43oDa-KdzZeNtuy" name="Page-1">
    <mxGraphModel dx="868" dy="450" grid="1" gridSize="10" guides="1" tooltips="1" connect="1" arrows="1" fold="1" page="1" pageScale="1" pageWidth="827" pageHeight="1169" math="0" shadow="0">
      <root>
        <mxCell id="WIyWlLk6GJQsqaUBKTNV-0" />
        <mxCell id="WIyWlLk6GJQsqaUBKTNV-1" parent="WIyWlLk6GJQsqaUBKTNV-0" />
        <mxCell id="zkfFHV4jXpPFQw0GAbJ--0" value="Person" style="swimlane;fontStyle=2;align=center;verticalAlign=top;childLayout=stackLayout;horizontal=1;startSize=26;horizontalStack=0;resizeParent=1;resizeLast=0;collapsible=1;marginBottom=0;rounded=0;shadow=0;strokeWidth=1;" parent="WIyWlLk6GJQsqaUBKTNV-1" vertex="1">
          <mxGeometry x="220" y="120" width="160" height="138" as="geometry">
            <mxRectangle x="230" y="140" width="160" height="26" as="alternateBounds" />
          </mxGeometry>
        </mxCell>
        <mxCell id="zkfFHV4jXpPFQw0GAbJ--1" value="Name" style="text;align=left;verticalAlign=top;spacingLeft=4;spacingRight=4;overflow=hidden;rotatable=0;points=[[0,0.5],[1,0.5]];portConstraint=eastwest;" parent="zkfFHV4jXpPFQw0GAbJ--0" vertex="1">
          <mxGeometry y="26" width="160" height="26" as="geometry" />
        </mxCell>
        <mxCell id="zkfFHV4jXpPFQw0GAbJ--2" value="Phone Number" style="text;align=left;verticalAlign=top;spacingLeft=4;spacingRight=4;overflow=hidden;rotatable=0;points=[[0,0.5],[1,0.5]];portConstraint=eastwest;rounded=0;shadow=0;html=0;" parent="zkfFHV4jXpPFQw0GAbJ--0" vertex="1">
          <mxGeometry y="52" width="160" height="26" as="geometry" />
        </mxCell>
        <mxCell id="zkfFHV4jXpPFQw0GAbJ--3" value="Email Address" style="text;align=left;verticalAlign=top;spacingLeft=4;spacingRight=4;overflow=hidden;rotatable=0;points=[[0,0.5],[1,0.5]];portConstraint=eastwest;rounded=0;shadow=0;html=0;" parent="zkfFHV4jXpPFQw0GAbJ--0" vertex="1">
          <mxGeometry y="78" width="160" height="26" as="geometry" />
        </mxCell>
        <mxCell id="zkfFHV4jXpPFQw0GAbJ--4" value="" style="line;html=1;strokeWidth=1;align=left;verticalAlign=middle;spacingTop=-1;spacingLeft=3;spacingRight=3;rotatable=0;labelPosition=right;points=[];portConstraint=eastwest;" parent="zkfFHV4jXpPFQw0GAbJ--0" vertex="1">
          <mxGeometry y="104" width="160" height="8" as="geometry" />
        </mxCell>
        <mxCell id="zkfFHV4jXpPFQw0GAbJ--5" value="Purchase Parking Pass" style="text;align=left;verticalAlign=top;spacingLeft=4;spacingRight=4;overflow=hidden;rotatable=0;points=[[0,0.5],[1,0.5]];portConstraint=eastwest;" parent="zkfFHV4jXpPFQw0GAbJ--0" vertex="1">
          <mxGeometry y="112" width="160" height="26" as="geometry" />
        </mxCell>
        <mxCell id="zkfFHV4jXpPFQw0GAbJ--6" value="Student" style="swimlane;fontStyle=0;align=center;verticalAlign=top;childLayout=stackLayout;horizontal=1;startSize=26;horizontalStack=0;resizeParent=1;resizeLast=0;collapsible=1;marginBottom=0;rounded=0;shadow=0;strokeWidth=1;" parent="WIyWlLk6GJQsqaUBKTNV-1" vertex="1">
          <mxGeometry x="120" y="360" width="160" height="138" as="geometry">
            <mxRectangle x="130" y="380" width="160" height="26" as="alternateBounds" />
          </mxGeometry>
        </mxCell>
        <mxCell id="zkfFHV4jXpPFQw0GAbJ--7" value="Student Number" style="text;align=left;verticalAlign=top;spacingLeft=4;spacingRight=4;overflow=hidden;rotatable=0;points=[[0,0.5],[1,0.5]];portConstraint=eastwest;" parent="zkfFHV4jXpPFQw0GAbJ--6" vertex="1">
          <mxGeometry y="26" width="160" height="26" as="geometry" />
        </mxCell>
        <mxCell id="zkfFHV4jXpPFQw0GAbJ--8" value="Average Mark" style="text;align=left;verticalAlign=top;spacingLeft=4;spacingRight=4;overflow=hidden;rotatable=0;points=[[0,0.5],[1,0.5]];portConstraint=eastwest;rounded=0;shadow=0;html=0;" parent="zkfFHV4jXpPFQw0GAbJ--6" vertex="1">
          <mxGeometry y="52" width="160" height="26" as="geometry" />
        </mxCell>
        <mxCell id="zkfFHV4jXpPFQw0GAbJ--9" value="" style="line;html=1;strokeWidth=1;align=left;verticalAlign=middle;spacingTop=-1;spacingLeft=3;spacingRight=3;rotatable=0;labelPosition=right;points=[];portConstraint=eastwest;" parent="zkfFHV4jXpPFQw0GAbJ--6" vertex="1">
          <mxGeometry y="78" width="160" height="8" as="geometry" />
        </mxCell>
        <mxCell id="zkfFHV4jXpPFQw0GAbJ--10" value="Is Eligible To Enroll" style="text;align=left;verticalAlign=top;spacingLeft=4;spacingRight=4;overflow=hidden;rotatable=0;points=[[0,0.5],[1,0.5]];portConstraint=eastwest;fontStyle=4" parent="zkfFHV4jXpPFQw0GAbJ--6" vertex="1">
          <mxGeometry y="86" width="160" height="26" as="geometry" />
        </mxCell>
        <mxCell id="zkfFHV4jXpPFQw0GAbJ--11" value="Get Seminars Taken" style="text;align=left;verticalAlign=top;spacingLeft=4;spacingRight=4;overflow=hidden;rotatable=0;points=[[0,0.5],[1,0.5]];portConstraint=eastwest;" parent="zkfFHV4jXpPFQw0GAbJ--6" vertex="1">
          <mxGeometry y="112" width="160" height="26" as="geometry" />
        </mxCell>
        <mxCell id="zkfFHV4jXpPFQw0GAbJ--12" value="" style="endArrow=block;endSize=10;endFill=0;shadow=0;strokeWidth=1;rounded=0;edgeStyle=elbowEdgeStyle;elbow=vertical;" parent="WIyWlLk6GJQsqaUBKTNV-1" source="zkfFHV4jXpPFQw0GAbJ--6" target="zkfFHV4jXpPFQw0GAbJ--0" edge="1">
          <mxGeometry width="160" relative="1" as="geometry">
            <mxPoint x="200" y="203" as="sourcePoint" />
            <mxPoint x="200" y="203" as="targetPoint" />
          </mxGeometry>
        </mxCell>
        <mxCell id="zkfFHV4jXpPFQw0GAbJ--13" value="Professor" style="swimlane;fontStyle=0;align=center;verticalAlign=top;childLayout=stackLayout;horizontal=1;startSize=26;horizontalStack=0;resizeParent=1;resizeLast=0;collapsible=1;marginBottom=0;rounded=0;shadow=0;strokeWidth=1;" parent="WIyWlLk6GJQsqaUBKTNV-1" vertex="1">
          <mxGeometry x="320" y="350" width="160" height="70" as="geometry">
            <mxRectangle x="340" y="380" width="170" height="26" as="alternateBounds" />
          </mxGeometry>
        </mxCell>
        <mxCell id="zkfFHV4jXpPFQw0GAbJ--14" value="Salary" style="text;align=left;verticalAlign=top;spacingLeft=4;spacingRight=4;overflow=hidden;rotatable=0;points=[[0,0.5],[1,0.5]];portConstraint=eastwest;" parent="zkfFHV4jXpPFQw0GAbJ--13" vertex="1">
          <mxGeometry y="26" width="160" height="26" as="geometry" />
        </mxCell>
        <mxCell id="zkfFHV4jXpPFQw0GAbJ--15" value="" style="line;html=1;strokeWidth=1;align=left;verticalAlign=middle;spacingTop=-1;spacingLeft=3;spacingRight=3;rotatable=0;labelPosition=right;points=[];portConstraint=eastwest;" parent="zkfFHV4jXpPFQw0GAbJ--13" vertex="1">
          <mxGeometry y="52" width="160" height="8" as="geometry" />
        </mxCell>
        <mxCell id="zkfFHV4jXpPFQw0GAbJ--16" value="" style="endArrow=block;endSize=10;endFill=0;shadow=0;strokeWidth=1;rounded=0;edgeStyle=elbowEdgeStyle;elbow=vertical;" parent="WIyWlLk6GJQsqaUBKTNV-1" source="zkfFHV4jXpPFQw0GAbJ--13" target="zkfFHV4jXpPFQw0GAbJ--0" edge="1">
          <mxGeometry width="160" relative="1" as="geometry">
            <mxPoint x="210" y="373" as="sourcePoint" />
            <mxPoint x="310" y="271" as="targetPoint" />
          </mxGeometry>
        </mxCell>
        <mxCell id="zkfFHV4jXpPFQw0GAbJ--17" value="Address" style="swimlane;fontStyle=0;align=center;verticalAlign=top;childLayout=stackLayout;horizontal=1;startSize=26;horizontalStack=0;resizeParent=1;resizeLast=0;collapsible=1;marginBottom=0;rounded=0;shadow=0;strokeWidth=1;" parent="WIyWlLk6GJQsqaUBKTNV-1" vertex="1">
          <mxGeometry x="508" y="120" width="160" height="216" as="geometry">
            <mxRectangle x="550" y="140" width="160" height="26" as="alternateBounds" />
          </mxGeometry>
        </mxCell>
        <mxCell id="zkfFHV4jXpPFQw0GAbJ--18" value="Street" style="text;align=left;verticalAlign=top;spacingLeft=4;spacingRight=4;overflow=hidden;rotatable=0;points=[[0,0.5],[1,0.5]];portConstraint=eastwest;" parent="zkfFHV4jXpPFQw0GAbJ--17" vertex="1">
          <mxGeometry y="26" width="160" height="26" as="geometry" />
        </mxCell>
        <mxCell id="zkfFHV4jXpPFQw0GAbJ--19" value="City" style="text;align=left;verticalAlign=top;spacingLeft=4;spacingRight=4;overflow=hidden;rotatable=0;points=[[0,0.5],[1,0.5]];portConstraint=eastwest;rounded=0;shadow=0;html=0;" parent="zkfFHV4jXpPFQw0GAbJ--17" vertex="1">
          <mxGeometry y="52" width="160" height="26" as="geometry" />
        </mxCell>
        <mxCell id="zkfFHV4jXpPFQw0GAbJ--20" value="State" style="text;align=left;verticalAlign=top;spacingLeft=4;spacingRight=4;overflow=hidden;rotatable=0;points=[[0,0.5],[1,0.5]];portConstraint=eastwest;rounded=0;shadow=0;html=0;" parent="zkfFHV4jXpPFQw0GAbJ--17" vertex="1">
          <mxGeometry y="78" width="160" height="26" as="geometry" />
        </mxCell>
        <mxCell id="zkfFHV4jXpPFQw0GAbJ--21" value="Postal Code" style="text;align=left;verticalAlign=top;spacingLeft=4;spacingRight=4;overflow=hidden;rotatable=0;points=[[0,0.5],[1,0.5]];portConstraint=eastwest;rounded=0;shadow=0;html=0;" parent="zkfFHV4jXpPFQw0GAbJ--17" vertex="1">
          <mxGeometry y="104" width="160" height="26" as="geometry" />
        </mxCell>
        <mxCell id="zkfFHV4jXpPFQw0GAbJ--22" value="Country" style="text;align=left;verticalAlign=top;spacingLeft=4;spacingRight=4;overflow=hidden;rotatable=0;points=[[0,0.5],[1,0.5]];portConstraint=eastwest;rounded=0;shadow=0;html=0;" parent="zkfFHV4jXpPFQw0GAbJ--17" vertex="1">
          <mxGeometry y="130" width="160" height="26" as="geometry" />
        </mxCell>
        <mxCell id="zkfFHV4jXpPFQw0GAbJ--23" value="" style="line;html=1;strokeWidth=1;align=left;verticalAlign=middle;spacingTop=-1;spacingLeft=3;spacingRight=3;rotatable=0;labelPosition=right;points=[];portConstraint=eastwest;" parent="zkfFHV4jXpPFQw0GAbJ--17" vertex="1">
          <mxGeometry y="156" width="160" height="8" as="geometry" />
        </mxCell>
        <mxCell id="zkfFHV4jXpPFQw0GAbJ--24" value="Validate" style="text;align=left;verticalAlign=top;spacingLeft=4;spacingRight=4;overflow=hidden;rotatable=0;points=[[0,0.5],[1,0.5]];portConstraint=eastwest;" parent="zkfFHV4jXpPFQw0GAbJ--17" vertex="1">
          <mxGeometry y="164" width="160" height="26" as="geometry" />
        </mxCell>
        <mxCell id="zkfFHV4jXpPFQw0GAbJ--25" value="Output As Label" style="text;align=left;verticalAlign=top;spacingLeft=4;spacingRight=4;overflow=hidden;rotatable=0;points=[[0,0.5],[1,0.5]];portConstraint=eastwest;" parent="zkfFHV4jXpPFQw0GAbJ--17" vertex="1">
          <mxGeometry y="190" width="160" height="26" as="geometry" />
        </mxCell>
        <mxCell id="zkfFHV4jXpPFQw0GAbJ--26" value="" style="endArrow=open;shadow=0;strokeWidth=1;rounded=0;endFill=1;edgeStyle=elbowEdgeStyle;elbow=vertical;" parent="WIyWlLk6GJQsqaUBKTNV-1" source="zkfFHV4jXpPFQw0GAbJ--0" target="zkfFHV4jXpPFQw0GAbJ--17" edge="1">
          <mxGeometry x="0.5" y="41" relative="1" as="geometry">
            <mxPoint x="380" y="192" as="sourcePoint" />
            <mxPoint x="540" y="192" as="targetPoint" />
            <mxPoint x="-40" y="32" as="offset" />
          </mxGeometry>
        </mxCell>
        <mxCell id="zkfFHV4jXpPFQw0GAbJ--27" value="0..1" style="resizable=0;align=left;verticalAlign=bottom;labelBackgroundColor=none;fontSize=12;" parent="zkfFHV4jXpPFQw0GAbJ--26" connectable="0" vertex="1">
          <mxGeometry x="-1" relative="1" as="geometry">
            <mxPoint y="4" as="offset" />
          </mxGeometry>
        </mxCell>
        <mxCell id="zkfFHV4jXpPFQw0GAbJ--28" value="1" style="resizable=0;align=right;verticalAlign=bottom;labelBackgroundColor=none;fontSize=12;" parent="zkfFHV4jXpPFQw0GAbJ--26" connectable="0" vertex="1">
          <mxGeometry x="1" relative="1" as="geometry">
            <mxPoint x="-7" y="4" as="offset" />
          </mxGeometry>
        </mxCell>
        <mxCell id="zkfFHV4jXpPFQw0GAbJ--29" value="lives at" style="text;html=1;resizable=0;points=[];;align=center;verticalAlign=middle;labelBackgroundColor=none;rounded=0;shadow=0;strokeWidth=1;fontSize=12;" parent="zkfFHV4jXpPFQw0GAbJ--26" vertex="1" connectable="0">
          <mxGeometry x="0.5" y="49" relative="1" as="geometry">
            <mxPoint x="-38" y="40" as="offset" />
          </mxGeometry>
        </mxCell>
      </root>
    </mxGraphModel>
  </diagram>
  <diagram id="a9kGSJYgxwQCSWXo4pwc" name="DESPLAZAMIENTO ENTRE 2 PUNTOS">
    <mxGraphModel dx="1680" dy="450" grid="1" gridSize="10" guides="1" tooltips="1" connect="1" arrows="1" fold="1" page="1" pageScale="1" pageWidth="827" pageHeight="1169" math="0" shadow="0">
      <root>
        <mxCell id="SuKJYPEuC0iPRnV6mOwe-0" />
        <mxCell id="SuKJYPEuC0iPRnV6mOwe-1" parent="SuKJYPEuC0iPRnV6mOwe-0" />
        <mxCell id="SuKJYPEuC0iPRnV6mOwe-5" value="" style="edgeStyle=orthogonalEdgeStyle;rounded=0;orthogonalLoop=1;jettySize=auto;html=1;" edge="1" parent="SuKJYPEuC0iPRnV6mOwe-1" source="SuKJYPEuC0iPRnV6mOwe-3" target="SuKJYPEuC0iPRnV6mOwe-4">
          <mxGeometry relative="1" as="geometry" />
        </mxCell>
        <mxCell id="SuKJYPEuC0iPRnV6mOwe-3" value="Desplazamiento entre 2 puntos" style="ellipse;whiteSpace=wrap;html=1;" vertex="1" parent="SuKJYPEuC0iPRnV6mOwe-1">
          <mxGeometry x="354" y="250" width="120" height="80" as="geometry" />
        </mxCell>
        <mxCell id="SuKJYPEuC0iPRnV6mOwe-9" value="" style="edgeStyle=orthogonalEdgeStyle;rounded=0;orthogonalLoop=1;jettySize=auto;html=1;" edge="1" parent="SuKJYPEuC0iPRnV6mOwe-1" source="SuKJYPEuC0iPRnV6mOwe-4">
          <mxGeometry relative="1" as="geometry">
            <mxPoint x="414" y="510" as="targetPoint" />
            <Array as="points">
              <mxPoint x="414" y="500" />
              <mxPoint x="414" y="500" />
            </Array>
          </mxGeometry>
        </mxCell>
        <mxCell id="SuKJYPEuC0iPRnV6mOwe-4" value="Buscar la ruta por google maps" style="shape=parallelogram;perimeter=parallelogramPerimeter;whiteSpace=wrap;html=1;fixedSize=1;" vertex="1" parent="SuKJYPEuC0iPRnV6mOwe-1">
          <mxGeometry x="293" y="380" width="242" height="80" as="geometry" />
        </mxCell>
        <mxCell id="SuKJYPEuC0iPRnV6mOwe-11" value="" style="edgeStyle=orthogonalEdgeStyle;rounded=0;orthogonalLoop=1;jettySize=auto;html=1;strokeColor=default;exitX=1;exitY=0.5;exitDx=0;exitDy=0;" edge="1" parent="SuKJYPEuC0iPRnV6mOwe-1" source="4g9oOpW-LsOW5fZ3vZNe-14">
          <mxGeometry relative="1" as="geometry">
            <mxPoint x="508.4285714285715" y="959.5" as="sourcePoint" />
            <mxPoint x="666" y="959.5" as="targetPoint" />
            <Array as="points">
              <mxPoint x="576" y="960" />
            </Array>
          </mxGeometry>
        </mxCell>
        <mxCell id="FzpXAM57OUHYjWY2UbxH-19" value="" style="edgeStyle=orthogonalEdgeStyle;rounded=0;orthogonalLoop=1;jettySize=auto;html=1;" edge="1" parent="SuKJYPEuC0iPRnV6mOwe-1" target="FzpXAM57OUHYjWY2UbxH-18">
          <mxGeometry relative="1" as="geometry">
            <mxPoint x="360" y="960" as="sourcePoint" />
            <Array as="points">
              <mxPoint x="330" y="960" />
              <mxPoint x="330" y="960" />
            </Array>
          </mxGeometry>
        </mxCell>
        <mxCell id="SuKJYPEuC0iPRnV6mOwe-10" value="Caminar hacia la estacion&amp;nbsp;" style="whiteSpace=wrap;html=1;" vertex="1" parent="SuKJYPEuC0iPRnV6mOwe-1">
          <mxGeometry x="666" y="930" width="124" height="60" as="geometry" />
        </mxCell>
        <mxCell id="SuKJYPEuC0iPRnV6mOwe-12" value="Si" style="text;html=1;align=center;verticalAlign=middle;resizable=0;points=[];autosize=1;strokeColor=none;fillColor=none;" vertex="1" parent="SuKJYPEuC0iPRnV6mOwe-1">
          <mxGeometry x="535" y="940" width="30" height="20" as="geometry" />
        </mxCell>
        <mxCell id="FzpXAM57OUHYjWY2UbxH-9" value="" style="edgeStyle=orthogonalEdgeStyle;rounded=0;orthogonalLoop=1;jettySize=auto;html=1;" edge="1" parent="SuKJYPEuC0iPRnV6mOwe-1" source="FzpXAM57OUHYjWY2UbxH-0" target="FzpXAM57OUHYjWY2UbxH-8">
          <mxGeometry relative="1" as="geometry" />
        </mxCell>
        <mxCell id="FzpXAM57OUHYjWY2UbxH-12" value="" style="edgeStyle=orthogonalEdgeStyle;rounded=0;orthogonalLoop=1;jettySize=auto;html=1;" edge="1" parent="SuKJYPEuC0iPRnV6mOwe-1" source="FzpXAM57OUHYjWY2UbxH-0">
          <mxGeometry relative="1" as="geometry">
            <mxPoint x="414" y="650" as="targetPoint" />
          </mxGeometry>
        </mxCell>
        <mxCell id="FzpXAM57OUHYjWY2UbxH-0" value="Es la ruta con menos semafos?" style="whiteSpace=wrap;html=1;" vertex="1" parent="SuKJYPEuC0iPRnV6mOwe-1">
          <mxGeometry x="354" y="510" width="120" height="60" as="geometry" />
        </mxCell>
        <mxCell id="FzpXAM57OUHYjWY2UbxH-4" style="edgeStyle=orthogonalEdgeStyle;rounded=0;orthogonalLoop=1;jettySize=auto;html=1;exitX=0.442;exitY=0.983;exitDx=0;exitDy=0;exitPerimeter=0;" edge="1" parent="SuKJYPEuC0iPRnV6mOwe-1" source="SuKJYPEuC0iPRnV6mOwe-10" target="4g9oOpW-LsOW5fZ3vZNe-5">
          <mxGeometry relative="1" as="geometry">
            <mxPoint x="470" y="1085" as="targetPoint" />
            <Array as="points">
              <mxPoint x="728" y="1125" />
            </Array>
          </mxGeometry>
        </mxCell>
        <mxCell id="FzpXAM57OUHYjWY2UbxH-13" style="edgeStyle=orthogonalEdgeStyle;rounded=0;orthogonalLoop=1;jettySize=auto;html=1;" edge="1" parent="SuKJYPEuC0iPRnV6mOwe-1" source="FzpXAM57OUHYjWY2UbxH-8">
          <mxGeometry relative="1" as="geometry">
            <mxPoint x="420" y="620" as="targetPoint" />
            <Array as="points">
              <mxPoint x="720" y="620" />
            </Array>
          </mxGeometry>
        </mxCell>
        <mxCell id="FzpXAM57OUHYjWY2UbxH-8" value="La ruta alterna tiene menos semaforos" style="whiteSpace=wrap;html=1;" vertex="1" parent="SuKJYPEuC0iPRnV6mOwe-1">
          <mxGeometry x="660" y="510" width="120" height="60" as="geometry" />
        </mxCell>
        <mxCell id="FzpXAM57OUHYjWY2UbxH-10" value="No" style="text;html=1;align=center;verticalAlign=middle;resizable=0;points=[];autosize=1;strokeColor=none;fillColor=none;" vertex="1" parent="SuKJYPEuC0iPRnV6mOwe-1">
          <mxGeometry x="550" y="520" width="30" height="20" as="geometry" />
        </mxCell>
        <mxCell id="FzpXAM57OUHYjWY2UbxH-14" value="Si&lt;br&gt;" style="text;html=1;align=center;verticalAlign=middle;resizable=0;points=[];autosize=1;strokeColor=none;fillColor=none;" vertex="1" parent="SuKJYPEuC0iPRnV6mOwe-1">
          <mxGeometry x="414" y="590" width="30" height="20" as="geometry" />
        </mxCell>
        <mxCell id="4g9oOpW-LsOW5fZ3vZNe-8" value="" style="edgeStyle=orthogonalEdgeStyle;rounded=0;orthogonalLoop=1;jettySize=auto;html=1;" edge="1" parent="SuKJYPEuC0iPRnV6mOwe-1" source="FzpXAM57OUHYjWY2UbxH-18" target="4g9oOpW-LsOW5fZ3vZNe-7">
          <mxGeometry relative="1" as="geometry">
            <Array as="points">
              <mxPoint x="-90" y="965" />
            </Array>
          </mxGeometry>
        </mxCell>
        <mxCell id="FzpXAM57OUHYjWY2UbxH-18" value="Esperar hasta que este disponible" style="whiteSpace=wrap;html=1;" vertex="1" parent="SuKJYPEuC0iPRnV6mOwe-1">
          <mxGeometry x="60" y="930" width="120" height="60" as="geometry" />
        </mxCell>
        <mxCell id="FzpXAM57OUHYjWY2UbxH-20" value="No" style="text;html=1;align=center;verticalAlign=middle;resizable=0;points=[];autosize=1;strokeColor=none;fillColor=none;" vertex="1" parent="SuKJYPEuC0iPRnV6mOwe-1">
          <mxGeometry x="245" y="940" width="30" height="20" as="geometry" />
        </mxCell>
        <mxCell id="4g9oOpW-LsOW5fZ3vZNe-6" value="" style="edgeStyle=orthogonalEdgeStyle;rounded=0;orthogonalLoop=1;jettySize=auto;html=1;" edge="1" parent="SuKJYPEuC0iPRnV6mOwe-1" source="4g9oOpW-LsOW5fZ3vZNe-2" target="4g9oOpW-LsOW5fZ3vZNe-5">
          <mxGeometry relative="1" as="geometry">
            <Array as="points">
              <mxPoint x="200" y="1125" />
              <mxPoint x="200" y="1125" />
            </Array>
          </mxGeometry>
        </mxCell>
        <mxCell id="4g9oOpW-LsOW5fZ3vZNe-2" value="Caminar hacia la estacion" style="whiteSpace=wrap;html=1;" vertex="1" parent="SuKJYPEuC0iPRnV6mOwe-1">
          <mxGeometry x="50" y="1095" width="120" height="60" as="geometry" />
        </mxCell>
        <mxCell id="4g9oOpW-LsOW5fZ3vZNe-5" value="Tomar autobus" style="whiteSpace=wrap;html=1;" vertex="1" parent="SuKJYPEuC0iPRnV6mOwe-1">
          <mxGeometry x="354" y="1095" width="120" height="60" as="geometry" />
        </mxCell>
        <mxCell id="4g9oOpW-LsOW5fZ3vZNe-7" value="Autobus disponiible" style="whiteSpace=wrap;html=1;" vertex="1" parent="SuKJYPEuC0iPRnV6mOwe-1">
          <mxGeometry x="-150" y="1015" width="120" height="60" as="geometry" />
        </mxCell>
        <mxCell id="4g9oOpW-LsOW5fZ3vZNe-12" value="" style="endArrow=classic;html=1;exitX=0.5;exitY=1;exitDx=0;exitDy=0;" edge="1" parent="SuKJYPEuC0iPRnV6mOwe-1" source="4g9oOpW-LsOW5fZ3vZNe-7">
          <mxGeometry width="50" height="50" relative="1" as="geometry">
            <mxPoint x="-90" y="1135" as="sourcePoint" />
            <mxPoint x="40" y="1125" as="targetPoint" />
            <Array as="points">
              <mxPoint x="-90" y="1125" />
              <mxPoint x="-70" y="1125" />
              <mxPoint x="-30" y="1125" />
            </Array>
          </mxGeometry>
        </mxCell>
        <mxCell id="4g9oOpW-LsOW5fZ3vZNe-14" value="Hay ruta de autobus?" style="rhombus;whiteSpace=wrap;html=1;" vertex="1" parent="SuKJYPEuC0iPRnV6mOwe-1">
          <mxGeometry x="361" y="920" width="106" height="80" as="geometry" />
        </mxCell>
        <mxCell id="Vt6GcM5Ct6ylvCN8iRcW-1" value="" style="edgeStyle=orthogonalEdgeStyle;rounded=0;orthogonalLoop=1;jettySize=auto;html=1;strokeColor=default;" edge="1" parent="SuKJYPEuC0iPRnV6mOwe-1" source="4g9oOpW-LsOW5fZ3vZNe-19">
          <mxGeometry relative="1" as="geometry">
            <mxPoint x="414" y="1250" as="targetPoint" />
          </mxGeometry>
        </mxCell>
        <mxCell id="4g9oOpW-LsOW5fZ3vZNe-19" value="Tomar autobus" style="whiteSpace=wrap;html=1;" vertex="1" parent="SuKJYPEuC0iPRnV6mOwe-1">
          <mxGeometry x="354" y="1095" width="120" height="60" as="geometry" />
        </mxCell>
        <mxCell id="4g9oOpW-LsOW5fZ3vZNe-22" value="La ruta alterna demora menos en llegar a mi destino?" style="rounded=0;whiteSpace=wrap;html=1;" vertex="1" parent="SuKJYPEuC0iPRnV6mOwe-1">
          <mxGeometry x="354" y="650" width="120" height="60" as="geometry" />
        </mxCell>
        <mxCell id="4g9oOpW-LsOW5fZ3vZNe-23" value="" style="endArrow=classic;html=1;strokeColor=default;exitX=0.5;exitY=1;exitDx=0;exitDy=0;" edge="1" parent="SuKJYPEuC0iPRnV6mOwe-1" source="4g9oOpW-LsOW5fZ3vZNe-22">
          <mxGeometry width="50" height="50" relative="1" as="geometry">
            <mxPoint x="414" y="780" as="sourcePoint" />
            <mxPoint x="414" y="790" as="targetPoint" />
          </mxGeometry>
        </mxCell>
        <mxCell id="4g9oOpW-LsOW5fZ3vZNe-24" value="Si" style="text;html=1;align=center;verticalAlign=middle;resizable=0;points=[];autosize=1;strokeColor=none;fillColor=none;" vertex="1" parent="SuKJYPEuC0iPRnV6mOwe-1">
          <mxGeometry x="414" y="740" width="30" height="20" as="geometry" />
        </mxCell>
        <mxCell id="4g9oOpW-LsOW5fZ3vZNe-27" value="" style="edgeStyle=orthogonalEdgeStyle;rounded=0;orthogonalLoop=1;jettySize=auto;html=1;strokeColor=default;" edge="1" parent="SuKJYPEuC0iPRnV6mOwe-1" source="4g9oOpW-LsOW5fZ3vZNe-25" target="4g9oOpW-LsOW5fZ3vZNe-26">
          <mxGeometry relative="1" as="geometry" />
        </mxCell>
        <mxCell id="4g9oOpW-LsOW5fZ3vZNe-25" value="Es la manera mas economica de ir?" style="rounded=0;whiteSpace=wrap;html=1;" vertex="1" parent="SuKJYPEuC0iPRnV6mOwe-1">
          <mxGeometry x="351" y="790" width="120" height="60" as="geometry" />
        </mxCell>
        <mxCell id="3jdfHCoKDubQOqjkf-vJ-2" value="" style="edgeStyle=orthogonalEdgeStyle;rounded=0;orthogonalLoop=1;jettySize=auto;html=1;strokeColor=default;" edge="1" parent="SuKJYPEuC0iPRnV6mOwe-1" source="4g9oOpW-LsOW5fZ3vZNe-26">
          <mxGeometry relative="1" as="geometry">
            <mxPoint x="480" y="1940" as="targetPoint" />
            <Array as="points">
              <mxPoint x="900" y="1940" />
            </Array>
          </mxGeometry>
        </mxCell>
        <mxCell id="4g9oOpW-LsOW5fZ3vZNe-26" value="Ir en bicicleta electrica" style="whiteSpace=wrap;html=1;rounded=0;" vertex="1" parent="SuKJYPEuC0iPRnV6mOwe-1">
          <mxGeometry x="840" y="790" width="120" height="60" as="geometry" />
        </mxCell>
        <mxCell id="4g9oOpW-LsOW5fZ3vZNe-28" value="No" style="text;html=1;align=center;verticalAlign=middle;resizable=0;points=[];autosize=1;strokeColor=none;fillColor=none;" vertex="1" parent="SuKJYPEuC0iPRnV6mOwe-1">
          <mxGeometry x="700" y="790" width="30" height="20" as="geometry" />
        </mxCell>
        <mxCell id="4g9oOpW-LsOW5fZ3vZNe-33" value="" style="endArrow=classic;html=1;strokeColor=default;" edge="1" parent="SuKJYPEuC0iPRnV6mOwe-1">
          <mxGeometry width="50" height="50" relative="1" as="geometry">
            <mxPoint x="414" y="850" as="sourcePoint" />
            <mxPoint x="414" y="920" as="targetPoint" />
            <Array as="points">
              <mxPoint x="414" y="890" />
            </Array>
          </mxGeometry>
        </mxCell>
        <mxCell id="Vt6GcM5Ct6ylvCN8iRcW-5" value="" style="edgeStyle=orthogonalEdgeStyle;rounded=0;orthogonalLoop=1;jettySize=auto;html=1;strokeColor=default;" edge="1" parent="SuKJYPEuC0iPRnV6mOwe-1" source="Vt6GcM5Ct6ylvCN8iRcW-2" target="Vt6GcM5Ct6ylvCN8iRcW-4">
          <mxGeometry relative="1" as="geometry" />
        </mxCell>
        <mxCell id="Vt6GcM5Ct6ylvCN8iRcW-7" value="" style="edgeStyle=orthogonalEdgeStyle;rounded=0;orthogonalLoop=1;jettySize=auto;html=1;strokeColor=default;" edge="1" parent="SuKJYPEuC0iPRnV6mOwe-1" source="Vt6GcM5Ct6ylvCN8iRcW-2" target="Vt6GcM5Ct6ylvCN8iRcW-6">
          <mxGeometry relative="1" as="geometry" />
        </mxCell>
        <mxCell id="Vt6GcM5Ct6ylvCN8iRcW-2" value="Hay libros para leer en el camino?" style="rhombus;whiteSpace=wrap;html=1;" vertex="1" parent="SuKJYPEuC0iPRnV6mOwe-1">
          <mxGeometry x="329" y="1250" width="170" height="120" as="geometry" />
        </mxCell>
        <mxCell id="Vt6GcM5Ct6ylvCN8iRcW-14" value="" style="edgeStyle=orthogonalEdgeStyle;rounded=0;orthogonalLoop=1;jettySize=auto;html=1;strokeColor=default;entryX=0;entryY=0.5;entryDx=0;entryDy=0;" edge="1" parent="SuKJYPEuC0iPRnV6mOwe-1" source="Vt6GcM5Ct6ylvCN8iRcW-4" target="Vt6GcM5Ct6ylvCN8iRcW-11">
          <mxGeometry relative="1" as="geometry">
            <mxPoint x="110" y="1670" as="targetPoint" />
            <Array as="points">
              <mxPoint x="110" y="1510" />
            </Array>
          </mxGeometry>
        </mxCell>
        <mxCell id="Vt6GcM5Ct6ylvCN8iRcW-4" value="Buscar en mi celular libros en pdf" style="whiteSpace=wrap;html=1;" vertex="1" parent="SuKJYPEuC0iPRnV6mOwe-1">
          <mxGeometry x="50" y="1280" width="120" height="60" as="geometry" />
        </mxCell>
        <mxCell id="Vt6GcM5Ct6ylvCN8iRcW-16" value="" style="edgeStyle=orthogonalEdgeStyle;rounded=0;orthogonalLoop=1;jettySize=auto;html=1;strokeColor=default;entryX=1;entryY=0.5;entryDx=0;entryDy=0;" edge="1" parent="SuKJYPEuC0iPRnV6mOwe-1" source="Vt6GcM5Ct6ylvCN8iRcW-6" target="Vt6GcM5Ct6ylvCN8iRcW-11">
          <mxGeometry relative="1" as="geometry">
            <mxPoint x="728" y="1690" as="targetPoint" />
            <Array as="points">
              <mxPoint x="728" y="1510" />
            </Array>
          </mxGeometry>
        </mxCell>
        <mxCell id="Vt6GcM5Ct6ylvCN8iRcW-6" value="Tomar libro de mi gusto" style="whiteSpace=wrap;html=1;" vertex="1" parent="SuKJYPEuC0iPRnV6mOwe-1">
          <mxGeometry x="668" y="1280" width="120" height="60" as="geometry" />
        </mxCell>
        <mxCell id="Vt6GcM5Ct6ylvCN8iRcW-9" value="No" style="text;html=1;align=center;verticalAlign=middle;resizable=0;points=[];autosize=1;strokeColor=none;fillColor=none;" vertex="1" parent="SuKJYPEuC0iPRnV6mOwe-1">
          <mxGeometry x="245" y="1290" width="30" height="20" as="geometry" />
        </mxCell>
        <mxCell id="Vt6GcM5Ct6ylvCN8iRcW-10" value="Si" style="text;html=1;align=center;verticalAlign=middle;resizable=0;points=[];autosize=1;strokeColor=none;fillColor=none;" vertex="1" parent="SuKJYPEuC0iPRnV6mOwe-1">
          <mxGeometry x="535" y="1290" width="30" height="20" as="geometry" />
        </mxCell>
        <mxCell id="3jdfHCoKDubQOqjkf-vJ-0" value="" style="edgeStyle=orthogonalEdgeStyle;rounded=0;orthogonalLoop=1;jettySize=auto;html=1;strokeColor=default;" edge="1" parent="SuKJYPEuC0iPRnV6mOwe-1" source="Vt6GcM5Ct6ylvCN8iRcW-11" target="Vt6GcM5Ct6ylvCN8iRcW-17">
          <mxGeometry relative="1" as="geometry" />
        </mxCell>
        <mxCell id="Vt6GcM5Ct6ylvCN8iRcW-11" value="Leer" style="whiteSpace=wrap;html=1;" vertex="1" parent="SuKJYPEuC0iPRnV6mOwe-1">
          <mxGeometry x="354" y="1480" width="120" height="60" as="geometry" />
        </mxCell>
        <mxCell id="3jdfHCoKDubQOqjkf-vJ-6" value="" style="edgeStyle=orthogonalEdgeStyle;rounded=0;orthogonalLoop=1;jettySize=auto;html=1;strokeColor=default;" edge="1" parent="SuKJYPEuC0iPRnV6mOwe-1" source="Vt6GcM5Ct6ylvCN8iRcW-17" target="3jdfHCoKDubQOqjkf-vJ-5">
          <mxGeometry relative="1" as="geometry" />
        </mxCell>
        <mxCell id="Vt6GcM5Ct6ylvCN8iRcW-17" value="Esperar a llegar" style="whiteSpace=wrap;html=1;" vertex="1" parent="SuKJYPEuC0iPRnV6mOwe-1">
          <mxGeometry x="354" y="1600" width="120" height="60" as="geometry" />
        </mxCell>
        <mxCell id="6B96oJ4_Iv1Lt1aRZuTI-1" value="" style="edgeStyle=orthogonalEdgeStyle;rounded=0;orthogonalLoop=1;jettySize=auto;html=1;strokeColor=default;" edge="1" parent="SuKJYPEuC0iPRnV6mOwe-1" source="3jdfHCoKDubQOqjkf-vJ-5" target="6B96oJ4_Iv1Lt1aRZuTI-0">
          <mxGeometry relative="1" as="geometry" />
        </mxCell>
        <mxCell id="3jdfHCoKDubQOqjkf-vJ-5" value="Llegue a mi destino?" style="rhombus;whiteSpace=wrap;html=1;" vertex="1" parent="SuKJYPEuC0iPRnV6mOwe-1">
          <mxGeometry x="366" y="1730" width="96" height="80" as="geometry" />
        </mxCell>
        <mxCell id="6B96oJ4_Iv1Lt1aRZuTI-6" value="" style="edgeStyle=orthogonalEdgeStyle;rounded=0;orthogonalLoop=1;jettySize=auto;html=1;strokeColor=default;" edge="1" parent="SuKJYPEuC0iPRnV6mOwe-1" source="6B96oJ4_Iv1Lt1aRZuTI-0" target="6B96oJ4_Iv1Lt1aRZuTI-5">
          <mxGeometry relative="1" as="geometry" />
        </mxCell>
        <mxCell id="6B96oJ4_Iv1Lt1aRZuTI-0" value="Bajarme del vehiculo&amp;nbsp; y caminar al supermercado" style="whiteSpace=wrap;html=1;" vertex="1" parent="SuKJYPEuC0iPRnV6mOwe-1">
          <mxGeometry x="354" y="1900" width="120" height="60" as="geometry" />
        </mxCell>
        <mxCell id="6B96oJ4_Iv1Lt1aRZuTI-2" value="Si" style="text;html=1;align=center;verticalAlign=middle;resizable=0;points=[];autosize=1;strokeColor=none;fillColor=none;" vertex="1" parent="SuKJYPEuC0iPRnV6mOwe-1">
          <mxGeometry x="414" y="1840" width="30" height="20" as="geometry" />
        </mxCell>
        <mxCell id="6B96oJ4_Iv1Lt1aRZuTI-5" value="Entrar al supermercado" style="ellipse;whiteSpace=wrap;html=1;" vertex="1" parent="SuKJYPEuC0iPRnV6mOwe-1">
          <mxGeometry x="354" y="2040" width="120" height="60" as="geometry" />
        </mxCell>
      </root>
    </mxGraphModel>
  </diagram>
  <diagram id="AU2SxNDgz6bD-vUU0zpl" name="Page-3">
    <mxGraphModel dx="868" dy="450" grid="1" gridSize="10" guides="1" tooltips="1" connect="1" arrows="1" fold="1" page="1" pageScale="1" pageWidth="827" pageHeight="1169" math="0" shadow="0">
      <root>
        <mxCell id="Oo4Q97uJ5cRIA2TFyZE4-0" />
        <mxCell id="Oo4Q97uJ5cRIA2TFyZE4-1" parent="Oo4Q97uJ5cRIA2TFyZE4-0" />
        <mxCell id="Oo4Q97uJ5cRIA2TFyZE4-4" value="" style="edgeStyle=orthogonalEdgeStyle;rounded=0;orthogonalLoop=1;jettySize=auto;html=1;" parent="Oo4Q97uJ5cRIA2TFyZE4-1" source="Oo4Q97uJ5cRIA2TFyZE4-2" target="Oo4Q97uJ5cRIA2TFyZE4-3" edge="1">
          <mxGeometry relative="1" as="geometry" />
        </mxCell>
        <mxCell id="Oo4Q97uJ5cRIA2TFyZE4-2" value="Inicio" style="ellipse;whiteSpace=wrap;html=1;" parent="Oo4Q97uJ5cRIA2TFyZE4-1" vertex="1">
          <mxGeometry x="354" y="40" width="120" height="80" as="geometry" />
        </mxCell>
        <mxCell id="Oo4Q97uJ5cRIA2TFyZE4-6" value="" style="edgeStyle=orthogonalEdgeStyle;rounded=0;orthogonalLoop=1;jettySize=auto;html=1;" parent="Oo4Q97uJ5cRIA2TFyZE4-1" source="Oo4Q97uJ5cRIA2TFyZE4-3" target="Oo4Q97uJ5cRIA2TFyZE4-5" edge="1">
          <mxGeometry relative="1" as="geometry" />
        </mxCell>
        <mxCell id="Oo4Q97uJ5cRIA2TFyZE4-3" value="Num: 0&lt;br&gt;Count:50" style="shape=parallelogram;perimeter=parallelogramPerimeter;whiteSpace=wrap;html=1;fixedSize=1;" parent="Oo4Q97uJ5cRIA2TFyZE4-1" vertex="1">
          <mxGeometry x="354" y="210" width="120" height="60" as="geometry" />
        </mxCell>
        <mxCell id="Oo4Q97uJ5cRIA2TFyZE4-8" value="" style="edgeStyle=orthogonalEdgeStyle;rounded=0;orthogonalLoop=1;jettySize=auto;html=1;" parent="Oo4Q97uJ5cRIA2TFyZE4-1" source="Oo4Q97uJ5cRIA2TFyZE4-5" target="Oo4Q97uJ5cRIA2TFyZE4-7" edge="1">
          <mxGeometry relative="1" as="geometry" />
        </mxCell>
        <mxCell id="Oo4Q97uJ5cRIA2TFyZE4-5" value="Num" style="shape=document;whiteSpace=wrap;html=1;boundedLbl=1;" parent="Oo4Q97uJ5cRIA2TFyZE4-1" vertex="1">
          <mxGeometry x="354" y="340" width="120" height="80" as="geometry" />
        </mxCell>
        <mxCell id="Oo4Q97uJ5cRIA2TFyZE4-10" value="" style="edgeStyle=orthogonalEdgeStyle;rounded=0;orthogonalLoop=1;jettySize=auto;html=1;" parent="Oo4Q97uJ5cRIA2TFyZE4-1" source="Oo4Q97uJ5cRIA2TFyZE4-7" target="Oo4Q97uJ5cRIA2TFyZE4-9" edge="1">
          <mxGeometry relative="1" as="geometry" />
        </mxCell>
        <mxCell id="Oo4Q97uJ5cRIA2TFyZE4-7" value="Num= num+2" style="whiteSpace=wrap;html=1;" parent="Oo4Q97uJ5cRIA2TFyZE4-1" vertex="1">
          <mxGeometry x="354" y="510" width="120" height="60" as="geometry" />
        </mxCell>
        <mxCell id="Oo4Q97uJ5cRIA2TFyZE4-12" value="" style="edgeStyle=orthogonalEdgeStyle;rounded=0;orthogonalLoop=1;jettySize=auto;html=1;" parent="Oo4Q97uJ5cRIA2TFyZE4-1" source="Oo4Q97uJ5cRIA2TFyZE4-9" target="Oo4Q97uJ5cRIA2TFyZE4-11" edge="1">
          <mxGeometry relative="1" as="geometry" />
        </mxCell>
        <mxCell id="Oo4Q97uJ5cRIA2TFyZE4-9" value="Count=count-1" style="whiteSpace=wrap;html=1;" parent="Oo4Q97uJ5cRIA2TFyZE4-1" vertex="1">
          <mxGeometry x="354" y="650" width="120" height="60" as="geometry" />
        </mxCell>
        <mxCell id="Oo4Q97uJ5cRIA2TFyZE4-14" value="" style="edgeStyle=orthogonalEdgeStyle;rounded=0;orthogonalLoop=1;jettySize=auto;html=1;" parent="Oo4Q97uJ5cRIA2TFyZE4-1" source="Oo4Q97uJ5cRIA2TFyZE4-11" target="Oo4Q97uJ5cRIA2TFyZE4-13" edge="1">
          <mxGeometry relative="1" as="geometry" />
        </mxCell>
        <mxCell id="Oo4Q97uJ5cRIA2TFyZE4-11" value="Count=0" style="rhombus;whiteSpace=wrap;html=1;" parent="Oo4Q97uJ5cRIA2TFyZE4-1" vertex="1">
          <mxGeometry x="374" y="780" width="80" height="80" as="geometry" />
        </mxCell>
        <mxCell id="Oo4Q97uJ5cRIA2TFyZE4-17" value="" style="edgeStyle=orthogonalEdgeStyle;rounded=0;orthogonalLoop=1;jettySize=auto;html=1;" parent="Oo4Q97uJ5cRIA2TFyZE4-1" source="Oo4Q97uJ5cRIA2TFyZE4-13" target="Oo4Q97uJ5cRIA2TFyZE4-5" edge="1">
          <mxGeometry relative="1" as="geometry">
            <mxPoint x="320" y="370" as="targetPoint" />
            <Array as="points">
              <mxPoint x="150" y="980" />
              <mxPoint x="150" y="370" />
            </Array>
          </mxGeometry>
        </mxCell>
        <mxCell id="Oo4Q97uJ5cRIA2TFyZE4-13" value="Fin" style="ellipse;whiteSpace=wrap;html=1;" parent="Oo4Q97uJ5cRIA2TFyZE4-1" vertex="1">
          <mxGeometry x="354" y="950" width="120" height="60" as="geometry" />
        </mxCell>
        <mxCell id="Oo4Q97uJ5cRIA2TFyZE4-15" value="Si" style="text;html=1;align=center;verticalAlign=middle;resizable=0;points=[];autosize=1;strokeColor=none;fillColor=none;" parent="Oo4Q97uJ5cRIA2TFyZE4-1" vertex="1">
          <mxGeometry x="414" y="890" width="30" height="20" as="geometry" />
        </mxCell>
        <mxCell id="Oo4Q97uJ5cRIA2TFyZE4-18" value="No" style="text;html=1;align=center;verticalAlign=middle;resizable=0;points=[];autosize=1;strokeColor=none;fillColor=none;" parent="Oo4Q97uJ5cRIA2TFyZE4-1" vertex="1">
          <mxGeometry x="250" y="950" width="30" height="20" as="geometry" />
        </mxCell>
      </root>
    </mxGraphModel>
  </diagram>
  <diagram id="bsLAu6K0Ct-ZxRmUyQf2" name="Page-4">
    <mxGraphModel dx="868" dy="450" grid="1" gridSize="10" guides="1" tooltips="1" connect="1" arrows="1" fold="1" page="1" pageScale="1" pageWidth="827" pageHeight="1169" math="0" shadow="0">
      <root>
        <mxCell id="PsH8C3lesTiGNIlvRASD-0" />
        <mxCell id="PsH8C3lesTiGNIlvRASD-1" parent="PsH8C3lesTiGNIlvRASD-0" />
      </root>
    </mxGraphModel>
  </diagram>
  <diagram id="Bgci8JbIJU-xnOf_BWYb" name="La prehistoria ������">
    <mxGraphModel dx="3307" dy="1383" grid="1" gridSize="10" guides="1" tooltips="1" connect="1" arrows="1" fold="1" page="1" pageScale="1" pageWidth="827" pageHeight="1169" math="0" shadow="0">
      <root>
        <mxCell id="FJZ8HluCcTMLVMoPlVzB-0" />
        <mxCell id="FJZ8HluCcTMLVMoPlVzB-1" parent="FJZ8HluCcTMLVMoPlVzB-0" />
        <mxCell id="shIGaRTArXIhluq17ZkI-2" value="" style="edgeStyle=orthogonalEdgeStyle;rounded=0;orthogonalLoop=1;jettySize=auto;html=1;" parent="FJZ8HluCcTMLVMoPlVzB-1" source="shIGaRTArXIhluq17ZkI-0" target="shIGaRTArXIhluq17ZkI-1" edge="1">
          <mxGeometry relative="1" as="geometry" />
        </mxCell>
        <mxCell id="shIGaRTArXIhluq17ZkI-0" value="La prehistoria" style="ellipse;whiteSpace=wrap;html=1;" parent="FJZ8HluCcTMLVMoPlVzB-1" vertex="1">
          <mxGeometry x="350" y="410" width="120" height="80" as="geometry" />
        </mxCell>
        <mxCell id="shIGaRTArXIhluq17ZkI-4" value="" style="edgeStyle=orthogonalEdgeStyle;rounded=0;orthogonalLoop=1;jettySize=auto;html=1;" parent="FJZ8HluCcTMLVMoPlVzB-1" source="shIGaRTArXIhluq17ZkI-1" target="shIGaRTArXIhluq17ZkI-3" edge="1">
          <mxGeometry relative="1" as="geometry" />
        </mxCell>
        <mxCell id="shIGaRTArXIhluq17ZkI-1" value="La prehistoria es el periodo de tiempo transcurrido desde la aparición de los primeros homínidos antecesores del homosapiens hasta que tenemos constancia de la existencia de documentos escritos algo que tuvo lugar por allá en el 3500AC&lt;br&gt;He aquí un pequeño resumen:" style="whiteSpace=wrap;html=1;" parent="FJZ8HluCcTMLVMoPlVzB-1" vertex="1">
          <mxGeometry x="175" y="555" width="470" height="115" as="geometry" />
        </mxCell>
        <mxCell id="shIGaRTArXIhluq17ZkI-6" value="" style="edgeStyle=orthogonalEdgeStyle;rounded=0;orthogonalLoop=1;jettySize=auto;html=1;entryX=0.5;entryY=0;entryDx=0;entryDy=0;" parent="FJZ8HluCcTMLVMoPlVzB-1" source="shIGaRTArXIhluq17ZkI-3" target="shIGaRTArXIhluq17ZkI-7" edge="1">
          <mxGeometry relative="1" as="geometry">
            <mxPoint x="210" y="890" as="targetPoint" />
            <Array as="points">
              <mxPoint x="410" y="880" />
              <mxPoint x="-22" y="880" />
            </Array>
          </mxGeometry>
        </mxCell>
        <mxCell id="shIGaRTArXIhluq17ZkI-3" value="La prehistoria y&amp;nbsp; la edad de los metales&amp;nbsp;" style="whiteSpace=wrap;html=1;" parent="FJZ8HluCcTMLVMoPlVzB-1" vertex="1">
          <mxGeometry x="350" y="777.5" width="120" height="60" as="geometry" />
        </mxCell>
        <mxCell id="shIGaRTArXIhluq17ZkI-8" value="" style="edgeStyle=orthogonalEdgeStyle;rounded=0;orthogonalLoop=1;jettySize=auto;html=1;entryX=0;entryY=0.5;entryDx=0;entryDy=0;" parent="FJZ8HluCcTMLVMoPlVzB-1" source="shIGaRTArXIhluq17ZkI-5" target="shIGaRTArXIhluq17ZkI-5" edge="1">
          <mxGeometry relative="1" as="geometry">
            <Array as="points">
              <mxPoint x="353" y="960" />
            </Array>
          </mxGeometry>
        </mxCell>
        <mxCell id="shIGaRTArXIhluq17ZkI-10" value="" style="edgeStyle=orthogonalEdgeStyle;rounded=0;orthogonalLoop=1;jettySize=auto;html=1;" parent="FJZ8HluCcTMLVMoPlVzB-1" source="shIGaRTArXIhluq17ZkI-5" target="shIGaRTArXIhluq17ZkI-9" edge="1">
          <mxGeometry relative="1" as="geometry" />
        </mxCell>
        <mxCell id="shIGaRTArXIhluq17ZkI-18" value="" style="edgeStyle=orthogonalEdgeStyle;rounded=0;orthogonalLoop=1;jettySize=auto;html=1;" parent="FJZ8HluCcTMLVMoPlVzB-1" source="shIGaRTArXIhluq17ZkI-5" target="shIGaRTArXIhluq17ZkI-17" edge="1">
          <mxGeometry relative="1" as="geometry" />
        </mxCell>
        <mxCell id="shIGaRTArXIhluq17ZkI-5" value="Mesolítico (10.000AC- 8.000AC)" style="whiteSpace=wrap;html=1;" parent="FJZ8HluCcTMLVMoPlVzB-1" vertex="1">
          <mxGeometry x="338" y="917.5" width="150" height="60" as="geometry" />
        </mxCell>
        <mxCell id="shIGaRTArXIhluq17ZkI-13" value="" style="edgeStyle=orthogonalEdgeStyle;rounded=0;orthogonalLoop=1;jettySize=auto;html=1;" parent="FJZ8HluCcTMLVMoPlVzB-1" source="shIGaRTArXIhluq17ZkI-7" target="shIGaRTArXIhluq17ZkI-5" edge="1">
          <mxGeometry relative="1" as="geometry" />
        </mxCell>
        <mxCell id="shIGaRTArXIhluq17ZkI-16" value="" style="edgeStyle=orthogonalEdgeStyle;rounded=0;orthogonalLoop=1;jettySize=auto;html=1;" parent="FJZ8HluCcTMLVMoPlVzB-1" source="shIGaRTArXIhluq17ZkI-7" target="shIGaRTArXIhluq17ZkI-15" edge="1">
          <mxGeometry relative="1" as="geometry">
            <Array as="points">
              <mxPoint x="-22" y="1037" />
              <mxPoint x="-22" y="1037" />
            </Array>
          </mxGeometry>
        </mxCell>
        <mxCell id="shIGaRTArXIhluq17ZkI-7" value="Paleolitico(&lt;span style=&quot;color: rgb(189 , 193 , 198) ; font-family: &amp;#34;arial&amp;#34; , sans-serif ; font-size: 14px ; background-color: rgb(32 , 33 , 36)&quot;&gt;2.500.000 a.C. hasta los 8000 a. C)&lt;/span&gt;" style="whiteSpace=wrap;html=1;align=center;" parent="FJZ8HluCcTMLVMoPlVzB-1" vertex="1">
          <mxGeometry x="-102.5" y="917.5" width="160" height="60" as="geometry" />
        </mxCell>
        <mxCell id="shIGaRTArXIhluq17ZkI-20" value="" style="edgeStyle=orthogonalEdgeStyle;rounded=0;orthogonalLoop=1;jettySize=auto;html=1;" parent="FJZ8HluCcTMLVMoPlVzB-1" source="shIGaRTArXIhluq17ZkI-9" target="shIGaRTArXIhluq17ZkI-19" edge="1">
          <mxGeometry relative="1" as="geometry" />
        </mxCell>
        <mxCell id="_TWUikb2skhS9eVJR1MJ-3" value="" style="edgeStyle=orthogonalEdgeStyle;rounded=0;orthogonalLoop=1;jettySize=auto;html=1;" edge="1" parent="FJZ8HluCcTMLVMoPlVzB-1" source="shIGaRTArXIhluq17ZkI-9" target="_TWUikb2skhS9eVJR1MJ-2">
          <mxGeometry relative="1" as="geometry" />
        </mxCell>
        <mxCell id="shIGaRTArXIhluq17ZkI-9" value="Neolitico (8.000AC- 5.000AC)" style="whiteSpace=wrap;html=1;" parent="FJZ8HluCcTMLVMoPlVzB-1" vertex="1">
          <mxGeometry x="752.5" y="917" width="120" height="60" as="geometry" />
        </mxCell>
        <mxCell id="shIGaRTArXIhluq17ZkI-15" value="Hace unos 5 millones de anos gracias a varios cambios climáticos el simio tuvo la necesidad&amp;nbsp; de caminar de un lado a otro y&amp;nbsp; solo aquellos que pudieron adaptarse a este cambio fueron los que sobrevivieron. El hombre vivía en pequeños grupos de cazadores y recolectores alojándose en cuevas y&amp;nbsp; yendo de un lado a otro buscando alimento.. Tiempo después&amp;nbsp; aprenden a tallar pequeños utensilios de piedras, hueso con las que casaban animales cada vez mas poderosos, además el dominio del fuego les dio la oportunidad de fritar carne o pescado, refugiarse de los depredadores o alumbrar en la noche.&lt;br&gt;Para el ano 1.5 mill A.C los homínidos ya habían salido de áfrica y se habían expandido por Europa Y asia .&lt;br&gt;&amp;nbsp;." style="whiteSpace=wrap;html=1;" parent="FJZ8HluCcTMLVMoPlVzB-1" vertex="1">
          <mxGeometry x="-237.5" y="1039.5" width="430" height="180.5" as="geometry" />
        </mxCell>
        <mxCell id="shIGaRTArXIhluq17ZkI-17" value="Durante este periodo se da la finalización del ultimo periodo glaciar, paulatinamente comienza la llegada de un clima templado esto permitió la modificación de costumbres y hábitos en el hombre, también&amp;nbsp; hubo un aumento de la vegetación, lo que permitió el sedentarismo, la creación de pequeñas aldeas, conquistando terreno a una extraordinaria rapidez.&lt;br&gt;Para este entonces el homosapiens salio de Africa y colonizo otros continenetes, llego a Oceania y despues a America, llevando con ellos su excepcional cultura&amp;nbsp; &amp;nbsp; &amp;nbsp;" style="whiteSpace=wrap;html=1;" parent="FJZ8HluCcTMLVMoPlVzB-1" vertex="1">
          <mxGeometry x="243" y="1040" width="340" height="140" as="geometry" />
        </mxCell>
        <mxCell id="shIGaRTArXIhluq17ZkI-23" value="" style="edgeStyle=orthogonalEdgeStyle;rounded=0;orthogonalLoop=1;jettySize=auto;html=1;" parent="FJZ8HluCcTMLVMoPlVzB-1" source="_TWUikb2skhS9eVJR1MJ-2" target="shIGaRTArXIhluq17ZkI-22" edge="1">
          <mxGeometry relative="1" as="geometry">
            <mxPoint x="1654" y="939" as="sourcePoint" />
          </mxGeometry>
        </mxCell>
        <mxCell id="shIGaRTArXIhluq17ZkI-19" value="Fueron capaces de producir alimento cultivando la tierra y domesticando los animales, ello surgió gracias a la necesidad&amp;nbsp; de alimentar a grupos humanos cada vez mas números, Durante miles de anos todo esto lo compaginaron con la caza hasta que poco a poco dejaron de necesitarla. Como recompensa las aldeas comenzaron a crecer de forma extraordinaria. Dichas aldeas estuvieron ubicados en lugares fértiles cerca de los ríos, ..&amp;nbsp;" style="whiteSpace=wrap;html=1;" parent="FJZ8HluCcTMLVMoPlVzB-1" vertex="1">
          <mxGeometry x="630" y="1039.5" width="365" height="110" as="geometry" />
        </mxCell>
        <mxCell id="shIGaRTArXIhluq17ZkI-22" value="Al periodo de la prehistoria se le da fin con la llegada de la escritura, esta nace en Mesopotamia a partir de algún sistema contable&amp;nbsp; que servía para contar el ganado y las cantidades de grano, es la escritura cuneiforme, a base de pictogramas que grababan con un pulsar en tablas de arcilla que después cocían,&amp;nbsp; esto sucedió en el 3.500 AC.&amp;nbsp;&lt;br&gt;A partir de allí muere la prehistoria y nace la historia&lt;br&gt;&amp;nbsp;" style="whiteSpace=wrap;html=1;" parent="FJZ8HluCcTMLVMoPlVzB-1" vertex="1">
          <mxGeometry x="1620" y="1039.5" width="390" height="110" as="geometry" />
        </mxCell>
        <mxCell id="_TWUikb2skhS9eVJR1MJ-5" value="" style="edgeStyle=orthogonalEdgeStyle;rounded=0;orthogonalLoop=1;jettySize=auto;html=1;" edge="1" parent="FJZ8HluCcTMLVMoPlVzB-1" source="_TWUikb2skhS9eVJR1MJ-2" target="_TWUikb2skhS9eVJR1MJ-4">
          <mxGeometry relative="1" as="geometry" />
        </mxCell>
        <mxCell id="_TWUikb2skhS9eVJR1MJ-2" value="La edad de los metales (6.500AC - 3.500AC)" style="whiteSpace=wrap;html=1;" vertex="1" parent="FJZ8HluCcTMLVMoPlVzB-1">
          <mxGeometry x="1246.25" y="917.5" width="120" height="60" as="geometry" />
        </mxCell>
        <mxCell id="_TWUikb2skhS9eVJR1MJ-4" value="Los hombres comienzan a utilizar los diferentes metales para sus herramientas y demás, el primer metal que se utilizo fue el cobre, luego el bronce y por ultimo el hierro. A este periodo se le llamo&amp;nbsp; &quot;La metalurgia&quot; con la llegada de la metalurgia nace la artesanía y con ello el comercio. El aumento de la producción agraria y la aparición de la artesanía provocaron el &quot;trueque&quot;, es aquí donde el comercio crea&amp;nbsp;un gran intercambio comercial y cultural entre las ciudades&amp;nbsp;que llevo a que las aldeas se hicieran ahora ciudades cada vez&amp;nbsp; mas y mas grandes. Además esto creo la aparición de las primeras desigualdades, es decir personas ricas y personas pobres, también aparecieron guerreros para proteger las ciudades y entre ellos surgieron los primeros reyes.&lt;br&gt;La prehistoria termina aquí cuando alguno de esos reyes fundaron grandes reinos cuya administración necesitaron la invención de algo que cambiaria el rumbo de nuestra especie, la escritura aquel invento da paso a la historia.&amp;nbsp;&lt;br&gt;&lt;span&gt;&amp;nbsp;&lt;/span&gt;&lt;span&gt;	&lt;/span&gt;&amp;nbsp; &amp;nbsp;" style="whiteSpace=wrap;html=1;" vertex="1" parent="FJZ8HluCcTMLVMoPlVzB-1">
          <mxGeometry x="1039.87" y="1040" width="532.75" height="190" as="geometry" />
        </mxCell>
      </root>
    </mxGraphModel>
  </diagram>
</mxfile>
